<svg xmlns="http://www.w3.org/2000/svg" viewBox="0 0 1200 760"><rect width="1200" height="760" fill="#f4efe5"/><path d="M0 620 C250 540 450 510 600 520 C780 530 950 555 1200 630 L1200 760 L0 760 Z" fill="#222" opacity=".12"/><circle cx="280" cy="235" r="55" fill="#1d1d1b"/><path d="M215 310 C245 260 315 260 345 310 L390 565 H170 Z" fill="#1d1d1b"/><path d="M245 330 L325 330 L340 545 L230 545 Z" fill="#365f25" opacity=".9"/><circle cx="920" cy="235" r="55" fill="#1d1d1b"/><path d="M855 310 C885 260 955 260 985 310 L1030 565 H810 Z" fill="#1d1d1b"/><path d="M390 410 C455 360 505 340 560 330" stroke="#1d1d1b" stroke-width="16" fill="none" stroke-linecap="round"/><path d="M810 410 C745 360 695 340 640 330" stroke="#1d1d1b" stroke-width="16" fill="none" stroke-linecap="round"/><ellipse cx="600" cy="310" rx="230" ry="125" fill="#f4efe5" stroke="#5b8f2f" stroke-width="12"/><text x="600" y="280" text-anchor="middle" font-family="Impact,Arial Black,sans-serif" font-size="60" fill="#1d1d1b">STATE IT</text><text x="600" y="350" text-anchor="middle" font-family="Impact,Arial Black,sans-serif" font-size="70" fill="#5b8f2f">FAIRLY</text><text x="600" y="425" text-anchor="middle" font-family="Impact,Arial Black,sans-serif" font-size="52" fill="#1d1d1b">THEN RESPOND.</text><text x="600" y="670" text-anchor="middle" font-family="Arial,sans-serif" font-size="34" font-weight="700" fill="#1d1d1b">Understand first. Disagree second. Argue better.</text></svg>