<svg xmlns="http://www.w3.org/2000/svg" viewBox="0 0 1600 900" role="img" aria-labelledby="title desc">
  <title id="title">A young person at a difficult ethical crossroads</title>
  <desc id="desc">Charcoal-style illustration of a young person facing split paths marked by easy opinion, popular choice, consequence, courage, and character, with restrained green highlights.</desc>
  <defs>
    <linearGradient id="paper" x1="0" x2="1" y1="0" y2="1">
      <stop offset="0" stop-color="#f7f4ec"/>
      <stop offset="1" stop-color="#e7e0d2"/>
    </linearGradient>
    <radialGradient id="glow" cx="55%" cy="52%" r="48%">
      <stop offset="0" stop-color="#7aa33a" stop-opacity="0.38"/>
      <stop offset="0.55" stop-color="#7aa33a" stop-opacity="0.08"/>
      <stop offset="1" stop-color="#7aa33a" stop-opacity="0"/>
    </radialGradient>
    <pattern id="hatch" width="12" height="12" patternUnits="userSpaceOnUse" patternTransform="rotate(-18)">
      <path d="M0 6 H12" stroke="#1d1d1b" stroke-opacity="0.16" stroke-width="2"/>
    </pattern>
    <filter id="rough"><feTurbulence type="fractalNoise" baseFrequency="0.018" numOctaves="3" seed="12"/><feDisplacementMap in="SourceGraphic" scale="1.6"/></filter>
  </defs>
  <rect width="1600" height="900" fill="url(#paper)"/>
  <rect width="1600" height="900" fill="url(#glow)"/>
  <path d="M0 782 C240 690 420 640 590 610 C700 590 785 585 805 585 C825 585 900 593 1010 615 C1185 650 1365 704 1600 785 L1600 900 L0 900 Z" fill="#1d1d1b" opacity="0.15"/>
  <path d="M0 735 C220 655 460 615 705 600 C605 685 515 785 445 900 L0 900 Z" fill="url(#hatch)" opacity="0.8"/>
  <path d="M1600 735 C1380 655 1140 615 895 600 C995 685 1085 785 1155 900 L1600 900 Z" fill="url(#hatch)" opacity="0.8"/>
  <path d="M760 900 C745 770 748 675 792 594" stroke="#22221f" stroke-width="18" stroke-linecap="round" fill="none" opacity="0.72"/>
  <path d="M840 900 C855 770 852 675 808 594" stroke="#22221f" stroke-width="18" stroke-linecap="round" fill="none" opacity="0.72"/>
  <path d="M807 602 C790 700 765 790 735 900" stroke="#5a8f2f" stroke-width="9" stroke-linecap="round" fill="none" opacity="0.92"/>
  <path d="M793 602 C810 700 835 790 865 900" stroke="#5a8f2f" stroke-width="9" stroke-linecap="round" fill="none" opacity="0.92"/>
  <g filter="url(#rough)" opacity="0.8">
    <path d="M-20 560 C120 405 250 335 430 280 C555 240 685 230 765 250" fill="none" stroke="#1c1c1a" stroke-width="8" stroke-opacity="0.32"/>
    <path d="M1620 560 C1480 405 1350 335 1170 280 C1045 240 915 230 835 250" fill="none" stroke="#1c1c1a" stroke-width="8" stroke-opacity="0.32"/>
    <path d="M120 595 C300 480 500 415 695 390" fill="none" stroke="#1c1c1a" stroke-width="4" stroke-opacity="0.24"/>
    <path d="M1480 595 C1300 480 1100 415 905 390" fill="none" stroke="#1c1c1a" stroke-width="4" stroke-opacity="0.24"/>
  </g>
  <g transform="translate(728 292)">
    <path d="M72 40 C118 40 143 82 137 128 C132 170 112 199 111 245 L37 245 C37 203 15 171 8 130 C0 82 27 40 72 40 Z" fill="#22221f"/>
    <circle cx="74" cy="35" r="32" fill="#1b1b19"/>
    <path d="M42 15 C61 -4 95 -2 112 21" stroke="#121210" stroke-width="11" fill="none" stroke-linecap="round"/>
    <path d="M30 250 L118 250 L145 490 L104 490 L89 345 L58 345 L43 490 L2 490 Z" fill="#1b1b19"/>
    <path d="M28 154 L-25 310" stroke="#22221f" stroke-width="24" stroke-linecap="round"/>
    <path d="M122 154 L171 310" stroke="#22221f" stroke-width="24" stroke-linecap="round"/>
    <path d="M39 248 L111 248 L105 335 L45 335 Z" fill="#355f25" opacity="0.95"/>
    <path d="M37 250 C62 263 88 263 114 250" stroke="#7fb33e" stroke-width="5" fill="none"/>
  </g>
  <g font-family="Impact, Arial Black, sans-serif" font-size="38" letter-spacing="1" filter="url(#rough)">
    <g transform="translate(170 215)">
      <path d="M0 0 H320 L365 34 L320 68 H0 Z" fill="#1d1d1b"/>
      <text x="28" y="47" fill="#f7f4ec">EASY OPINION</text>
    </g>
    <g transform="translate(135 315)">
      <path d="M0 0 H330 L370 34 L330 68 H0 Z" fill="#1d1d1b"/>
      <text x="30" y="47" fill="#f7f4ec">POPULAR CHOICE</text>
    </g>
    <g transform="translate(172 415)">
      <path d="M0 0 H280 L320 34 L280 68 H0 Z" fill="#1d1d1b"/>
      <text x="28" y="47" fill="#f7f4ec">NOBODY NOTICES</text>
    </g>
    <g transform="translate(1012 230)">
      <path d="M0 34 L45 0 H370 V68 H45 Z" fill="#355f25"/>
      <text x="78" y="47" fill="#f7f4ec">CONSEQUENCE</text>
    </g>
    <g transform="translate(1065 340)">
      <path d="M0 34 L45 0 H300 V68 H45 Z" fill="#355f25"/>
      <text x="82" y="47" fill="#f7f4ec">COURAGE</text>
    </g>
    <g transform="translate(1016 450)">
      <path d="M0 34 L45 0 H390 V68 H45 Z" fill="#355f25"/>
      <text x="80" y="47" fill="#f7f4ec">BECOME WHO YOU RESPECT</text>
    </g>
  </g>
  <text x="800" y="820" text-anchor="middle" font-family="Impact, Arial Black, sans-serif" font-size="58" fill="#1d1d1b">ETHICS STARTS WHEN THE EASY ANSWER RUNS OUT.</text>
  <text x="800" y="866" text-anchor="middle" font-family="Arial, sans-serif" font-size="26" fill="#4f842b">Domain 5: Philosophy &amp; Ethics</text>
</svg>